<?xml version="1.0" standalone="no"?>
<!DOCTYPE svg PUBLIC "-//W3C//DTD SVG 20010904//EN"
 "http://www.w3.org/TR/2001/REC-SVG-20010904/DTD/svg10.dtd">
<svg version="1.0" xmlns="http://www.w3.org/2000/svg"
 width="162.000000pt" height="162.000000pt" viewBox="0 0 162.000000 162.000000"
 preserveAspectRatio="xMidYMid meet">
<metadata>
Created by potrace 1.11, written by Peter Selinger 2001-2013
</metadata>
<g transform="translate(0.000000,162.000000) scale(0.100000,-0.100000)"
fill="#000000" stroke="none">
<path d="M1036 1245 c-34 -12 -49 -23 -103 -72 -8 -7 -23 -34 -35 -60 -19 -44
-21 -66 -22 -283 0 -259 2 -274 61 -347 86 -107 250 -112 341 -9 53 61 64 98
66 234 2 78 -1 125 -8 130 -9 7 -161 9 -213 3 -9 -1 -13 -22 -13 -71 0 -76 0
-76 68 -70 22 1 23 -2 21 -50 -4 -77 -49 -116 -115 -98 -54 14 -59 36 -59 284
0 219 0 223 23 247 13 14 34 27 47 30 32 6 81 -19 90 -46 4 -12 8 -25 10 -29
1 -5 3 -24 4 -43 l1 -36 73 3 72 3 -2 55 c-4 95 -43 161 -119 206 -53 31 -130
39 -188 19z"/>
<path d="M89 1246 c-1 -1 -2 -189 -3 -419 l-2 -419 146 4 c143 3 148 4 195 33
27 17 65 52 84 80 35 48 36 53 36 136 0 82 -2 90 -32 133 l-32 45 23 28 c100
119 49 304 -101 364 -20 8 -303 21 -314 15z m270 -155 c37 -20 51 -42 51 -80
0 -39 -34 -90 -62 -92 -7 -1 -37 -2 -65 -3 l-53 -2 0 91 c0 50 2 94 4 96 8 8
105 0 125 -10z m-8 -337 c63 -32 72 -123 17 -169 -28 -24 -39 -27 -93 -27 -14
0 -29 0 -35 1 -6 1 -10 43 -10 106 l0 105 45 0 c26 0 60 -7 76 -16z"/>
<path d="M644 1238 c-4 -6 -8 -666 -5 -800 1 -28 2 -28 70 -28 57 0 69 3 73
18 2 9 3 197 3 417 l-2 399 -67 1 c-37 1 -69 -3 -72 -7z"/>
<path d="M1433 1233 c-6 -16 4 -420 12 -503 11 -101 10 -100 60 -100 42 0 45
2 46 28 0 15 2 36 4 47 10 53 18 207 19 365 l1 175 -68 1 c-50 1 -70 -3 -74
-13z"/>
<path d="M1430 480 l0 -71 72 3 73 3 0 55 c2 80 2 80 -76 80 l-69 0 0 -70z"/>
</g>
</svg>
